PathFileType  4	(X/Y/Z) C:\Users\antoi\Documents\MyRepositories\mobilecap\ResultsAnalysis
DataRate	CameraRate	NumFrames	NumMarkers	Units	OrigDataRate	OrigDataStartFrame	OrigNumFrames
100.0	100.0	5	51	mm	100.0	139	184
Frame#	Time	r_knee			r_shank_antsup			r_ankle			r_calc			r_5meta			r_toe			L_knee			L_shank_antsup			L_ankle			L_calc			L_5meta			L_toe			r_sh2			r_sh3			r_sh4			L_sh2			L_sh3			r_thigh1			r_thigh2			r_thigh3			r_thigh4			r_thigh5			L_thigh1			L_thigh2			L_thigh3			L_thigh4			r.ASIS			r.PSIS			L.ASIS			L.PSIS			C7			R_Shoulder			L_Shoulder			R_Sternum			L_Sternum			R_humerus			R_elbow_med			R_elbow_lat			R_forearm			R_wrist_radius			R_wrist_ulna			L_humerus			L_elbow_med			L_elbow_lat			L_forearm			L_wrist_radius			L_wrist_ulna			R_HJC			L_HJC			R_HJC_reg			L_HJC_reg			
		X1	Y1	Z1	X2	Y2	Z2	X3	Y3	Z3	X4	Y4	Z4	X5	Y5	Z5	X6	Y6	Z6	X7	Y7	Z7	X8	Y8	Z8	X9	Y9	Z9	X10	Y10	Z10	X11	Y11	Z11	X12	Y12	Z12	X13	Y13	Z13	X14	Y14	Z14	X15	Y15	Z15	X16	Y16	Z16	X17	Y17	Z17	X18	Y18	Z18	X19	Y19	Z19	X20	Y20	Z20	X21	Y21	Z21	X22	Y22	Z22	X23	Y23	Z23	X24	Y24	Z24	X25	Y25	Z25	X26	Y26	Z26	X27	Y27	Z27	X28	Y28	Z28	X29	Y29	Z29	X30	Y30	Z30	X31	Y31	Z31	X32	Y32	Z32	X33	Y33	Z33	X34	Y34	Z34	X35	Y35	Z35	X36	Y36	Z36	X37	Y37	Z37	X38	Y38	Z38	X39	Y39	Z39	X40	Y40	Z40	X41	Y41	Z41	X42	Y42	Z42	X43	Y43	Z43	X44	Y44	Z44	X45	Y45	Z45	X46	Y46	Z46	X47	Y47	Z47	X48	Y48	Z48	X49	Y49	Z49	X50	Y50	Z50	X51	Y51	Z51	

139	1.38000000	1225.36390	627.18672	-66.19072	1265.99274	483.01398	-72.71224	1235.38213	114.11728	-87.61615	1185.01720	84.95198	-154.01981	1375.07302	70.63242	-53.46996	1412.93138	106.30979	-100.38276	994.44178	605.31012	-361.99667	1002.72184	404.27033	-327.02336	867.96296	120.78845	-325.18792	803.95598	92.27090	-264.56563	1001.88691	36.00552	-358.73346	1043.05408	59.92485	-297.34886	1272.46885	370.52874	-81.29323	1201.16576	473.82871	-34.49499	1202.58119	360.59472	-35.31462	945.65216	418.28990	-391.49190	914.49806	306.81475	-371.44741	1174.56360	910.24723	-30.44717	1219.85158	808.95411	-36.71426	1171.42962	761.96354	-29.13122	1070.30947	867.40587	-51.17222	1117.52044	759.65151	-50.58834	1123.26409	883.01201	-369.15941	1092.46488	752.87854	-362.32480	1019.25167	908.63177	-397.73156	990.10079	776.10383	-396.95519	1139.02205	1190.64453	-75.02586	963.92728	1211.08645	-176.11177	1164.39103	1150.62108	-350.07976	973.32429	1208.93169	-268.55629	1081.70506	1665.70267	-378.17950	1119.80663	1677.10757	-187.29693	1156.41438	1566.78501	-515.73328	1199.47659	1579.07436	-299.72951	1207.76675	1561.55215	-353.89625	990.50816	1473.73136	-50.57440	860.57462	1401.92254	-76.66830	878.66306	1437.56494	-11.00444	900.02718	1235.82710	69.55404	902.17178	1142.83945	94.86920	871.52426	1155.69929	115.11100	1179.15671	1267.44775	-515.14290	1087.54181	1190.53755	-472.51753	1123.12859	1177.49229	-539.96183	1241.93474	1010.32343	-511.62770	1284.65915	947.97238	-483.84036	1262.92767	937.48326	-510.09421	1064.52624	1091.83524	-105.82083	1072.13285	1070.86911	-302.03292	1075.89348	1085.62663	-118.33310	1094.51771	1081.35498	-301.55027	
140	1.39000000	1233.47330	625.62014	-67.13667	1277.96178	482.94170	-73.89944	1260.11058	113.17338	-90.23289	1210.37237	83.01602	-156.36047	1401.23152	73.85118	-56.80119	1437.78945	111.18497	-103.77777	998.77643	605.19948	-362.25031	1005.29885	403.91916	-327.03702	868.63735	121.61275	-324.99911	804.40704	93.44319	-264.34545	1001.89014	36.19616	-358.67224	1043.16072	59.84512	-297.21694	1288.17529	370.74672	-82.83201	1213.35145	471.54331	-35.81685	1218.52338	358.42179	-37.14465	948.67918	418.41272	-391.49414	916.61736	307.20006	-371.36698	1182.16240	908.49724	-30.90592	1227.19494	807.06378	-37.18142	1178.74019	760.19621	-29.85452	1078.00294	865.87466	-52.28774	1124.96530	758.26461	-51.56431	1129.73537	882.15792	-369.73357	1098.10244	752.35250	-362.76589	1025.79689	908.34397	-398.22274	995.75410	776.08064	-397.30871	1148.01479	1188.82477	-75.40665	972.66360	1210.05119	-176.04759	1172.63720	1149.69867	-350.64307	981.88675	1208.20260	-268.53786	1090.30070	1665.85075	-375.43347	1128.69423	1675.72021	-184.49468	1164.96040	1567.78178	-513.82024	1208.24035	1578.37981	-297.75538	1216.50265	1561.32563	-352.04626	1000.27386	1470.98890	-48.85120	870.50998	1398.90020	-75.07158	888.54747	1434.28950	-9.25217	910.98587	1232.21793	70.16252	913.64752	1139.14257	94.96782	882.95047	1151.73062	115.33305	1187.03658	1268.34708	-514.26805	1095.05557	1191.54163	-472.11808	1130.85149	1178.61020	-539.48609	1249.00181	1010.94176	-511.22919	1291.43976	948.35674	-483.45867	1269.77740	938.04300	-509.87570	1073.16412	1090.31164	-106.38787	1080.28764	1070.00758	-302.68755	1084.47782	1084.10422	-118.97214	1102.75221	1080.44025	-302.22833	
141	1.40000000	1241.51212	623.95223	-68.07310	1289.67901	482.83880	-75.08384	1284.12057	112.63475	-92.90625	1234.95717	81.60967	-158.72389	1426.56969	77.24484	-60.22854	1461.78778	116.13518	-107.23038	1003.22342	605.08556	-362.53413	1008.00089	403.57725	-327.09217	869.31798	122.47827	-324.82257	804.88760	94.67987	-264.14956	1001.91046	36.37314	-358.60243	1043.33645	59.75323	-297.08294	1303.45503	371.02627	-84.37222	1225.34519	469.30129	-37.17980	1234.10350	356.41577	-39.01864	951.77683	418.55423	-391.52964	918.78225	307.59510	-371.32055	1189.73076	906.62626	-31.29333	1234.49467	805.06137	-37.50017	1185.99733	758.32736	-30.47832	1085.69333	864.25615	-53.43263	1132.42474	756.87457	-52.48387	1136.29299	881.30245	-370.30133	1103.81284	751.83299	-363.23360	1032.44724	908.03345	-398.75175	1001.57479	776.05116	-397.66824	1157.15456	1186.93898	-75.79872	981.50974	1208.96333	-175.97872	1180.95043	1148.76076	-351.23125	990.51442	1207.40734	-268.51257	1098.98290	1665.97737	-372.54317	1137.71311	1674.22979	-181.55525	1173.57610	1568.79744	-511.78928	1217.10247	1577.62665	-295.68720	1225.32713	1561.05890	-350.10651	1010.18129	1468.14256	-47.03772	880.55725	1395.77597	-73.39046	898.58361	1430.88698	-7.38897	922.09936	1228.47196	70.80905	925.27910	1135.29564	95.06683	894.52787	1147.59947	115.57356	1194.91508	1269.27140	-513.36718	1102.53124	1192.59752	-471.70111	1138.54207	1179.77545	-538.98887	1255.93310	1011.52771	-510.85607	1298.02886	948.67454	-483.12512	1276.42729	938.54156	-509.70101	1081.93368	1088.72695	-106.97453	1088.53216	1069.10919	-303.36252	1093.19582	1082.56575	-119.58056	1111.03305	1079.48272	-302.88368	
142	1.41000000	1249.51532	622.20735	-69.03239	1301.16622	482.70436	-76.30729	1307.34793	112.45430	-95.57711	1258.70277	80.65411	-161.07858	1450.97707	80.74418	-63.63759	1484.86112	121.02167	-110.63073	1007.81141	604.95973	-362.83780	1010.88648	403.25640	-327.17719	870.01174	123.38963	-324.67007	805.39778	95.98584	-263.98555	1001.95072	36.52776	-358.52186	1043.58053	59.65101	-296.95054	1318.32332	371.36165	-85.93208	1237.16623	467.12439	-38.58690	1249.33856	354.57836	-40.90138	954.96300	418.70925	-391.59733	921.01636	308.00781	-371.30881	1197.31931	904.64661	-31.59470	1241.80693	802.97762	-37.68928	1193.26389	756.37630	-31.02584	1093.44523	862.56989	-54.58544	1139.94103	755.46094	-53.35083	1142.95622	880.43685	-370.86860	1109.62358	751.29375	-363.72589	1039.23516	907.71507	-399.34176	1007.56861	776.01073	-398.05383	1166.44509	1185.00926	-76.19158	990.48578	1207.82421	-175.90824	1189.34059	1147.81070	-351.83276	999.21733	1206.54534	-268.47385	1107.77061	1666.07440	-369.50382	1146.86492	1672.63992	-178.48257	1182.26569	1569.83865	-509.63749	1226.07612	1576.83888	-293.51978	1234.24074	1560.76108	-348.07751	1020.23010	1465.20096	-45.13590	890.71884	1392.57312	-71.62105	908.77712	1427.37654	-5.41941	933.36830	1224.59915	71.48871	937.06592	1131.30901	95.16160	906.25946	1143.32080	115.82831	1202.79046	1270.22079	-512.43700	1109.98821	1193.71046	-471.26047	1146.21575	1180.99859	-538.46221	1262.72788	1012.08842	-510.51235	1304.42884	948.93783	-482.83768	1282.87990	938.98899	-509.56987	1090.84855	1087.09596	-107.56749	1096.88482	1068.17506	-304.04239	1102.07283	1081.01945	-120.13577	1119.36787	1078.48633	-303.49742	
143	1.42000000	1257.52657	620.41698	-70.03217	1312.43754	482.53525	-77.59324	1329.71437	112.57620	-98.18785	1281.54061	80.06165	-163.40031	1474.34223	84.28312	-66.93159	1506.94146	125.73147	-113.89834	1012.57423	604.81185	-363.14398	1013.97926	402.95462	-327.27317	870.73290	124.35003	-324.55192	805.93665	97.36558	-263.85668	1002.00499	36.66118	-358.43077	1043.87832	59.53679	-296.82441	1332.78594	371.74275	-87.52106	1248.81565	465.03139	-40.03462	1264.22910	352.90696	-42.75546	958.26444	418.86810	-391.69058	923.34664	308.44830	-371.32446	1204.97760	902.57206	-31.79249	1249.18964	800.84482	-37.77784	1200.60201	754.36424	-31.52945	1101.33191	860.83639	-55.72845	1147.53360	753.96600	-54.17169	1149.74896	879.55160	-371.44122	1115.57234	750.71450	-364.23263	1046.18621	907.39984	-400.01350	1013.74288	775.94558	-398.47651	1175.88070	1183.05034	-76.57698	999.59512	1206.63541	-175.83098	1197.81043	1146.85087	-352.43852	1008.00549	1205.62085	-268.41437	1116.67857	1666.13661	-366.31400	1156.14821	1670.95600	-175.28573	1191.02502	1570.91350	-507.36605	1235.16837	1576.03693	-291.25035	1243.24071	1560.44030	-345.96282	1030.42199	1462.16236	-43.15160	901.00281	1389.30913	-69.75836	919.12248	1423.77789	-3.36469	944.78994	1220.60927	72.19719	949.00011	1127.19521	95.24831	918.14828	1138.91474	116.09281	1210.66448	1271.19907	-511.47121	1117.44378	1194.88559	-470.78793	1153.88368	1182.28959	-537.89885	1269.38291	1012.63228	-510.20502	1310.64650	949.15865	-482.59870	1289.13919	939.39969	-509.48551	1099.91071	1085.42855	-108.15581	1105.35226	1067.20805	-304.71484	1111.10978	1079.46449	-120.63520	1127.77119	1077.45535	-304.06722	
